<?xml version="1.0" standalone="no"?>
<!DOCTYPE svg PUBLIC "-//W3C//DTD SVG 20010904//EN"
 "http://www.w3.org/TR/2001/REC-SVG-20010904/DTD/svg10.dtd">
<svg version="1.0" xmlns="http://www.w3.org/2000/svg"
 width="120.000000pt" height="120.000000pt" viewBox="0 0 120.000000 120.000000"
 preserveAspectRatio="xMidYMid meet">
<metadata>
Created by potrace 1.14, written by Peter Selinger 2001-2017
</metadata>
<g transform="translate(0.000000,120.000000) scale(0.100000,-0.100000)"
fill="#000000" stroke="none">
<path d="M618 1158 c-8 -13 -20 -40 -27 -60 -7 -20 -17 -39 -24 -41 -7 -2 -41
7 -77 21 -96 37 -199 35 -305 -6 -44 -17 -93 -33 -109 -36 -41 -7 -42 -11 -13
-55 31 -46 81 -87 120 -96 32 -8 33 -15 9 -41 -48 -52 -98 -163 -109 -244 -45
-332 166 -561 517 -562 222 0 403 99 478 261 34 74 43 113 45 206 4 138 -42
260 -140 365 -80 87 -224 160 -314 160 -15 0 -30 4 -33 8 -2 4 6 34 19 65 22
55 22 58 5 67 -25 13 -26 13 -42 -12z"/>
</g>
</svg>
